<?xml version="1.0" encoding="UTF-8"?>
<svg width="24" height="24" viewBox="0 0 24 24" fill="none" xmlns="http://www.w3.org/2000/svg">
  <path d="M12 2C6.48 2 2 6.48 2 12C2 17.52 6.48 22 12 22C17.52 22 22 17.52 22 12C22 6.48 17.52 2 12 2ZM12 20C7.59 20 4 16.41 4 12C4 7.59 7.59 4 12 4C16.41 4 20 7.59 20 12C20 16.41 16.41 20 12 20Z" fill="#3B82F6"/>
  <path d="M12 6C8.69 6 6 8.69 6 12H8C8 9.79 9.79 8 12 8V6Z" fill="#60A5FA"/>
  <path d="M16 12C16 14.21 14.21 16 12 16V18C15.87 18 19 14.87 19 11C19 7.13 15.87 4 12 4V6C13.1 6 14 6.9 14 8C14 10.21 16 12 16 12Z" fill="#60A5FA"/>
</svg>